#define antenna_2_width 16
#define antenna_2_height 16
static unsigned char antenna_2_bits[] = {
   0x00, 0x00, 0x00, 0x00, 0x00, 0x00, 0x00, 0x00, 0x00, 0x00, 0x00, 0x00,
   0x00, 0x00, 0x00, 0x00, 0x00, 0x00, 0x30, 0x00, 0x30, 0x00, 0x30, 0x00,
   0x36, 0x00, 0x36, 0x00, 0x36, 0x00, 0xb6, 0x6d };
