#define antenna_4_width 16
#define antenna_4_height 16
static unsigned char antenna_4_bits[] = {
   0x00, 0x00, 0x00, 0x00, 0x00, 0x00, 0x00, 0x0c, 0x00, 0x0c, 0x00, 0x0c,
   0x80, 0x0d, 0x80, 0x0d, 0x80, 0x0d, 0xb0, 0x0d, 0xb0, 0x0d, 0xb0, 0x0d,
   0xb6, 0x0d, 0xb6, 0x0d, 0xb6, 0x0d, 0xb6, 0x6d };
