#define antenna_3_width 16
#define antenna_3_height 16
static unsigned char antenna_3_bits[] = {
   0x00, 0x00, 0x00, 0x00, 0x00, 0x00, 0x00, 0x00, 0x00, 0x00, 0x00, 0x00,
   0x80, 0x01, 0x80, 0x01, 0x80, 0x01, 0xb0, 0x01, 0xb0, 0x01, 0xb0, 0x01,
   0xb6, 0x01, 0xb6, 0x01, 0xb6, 0x01, 0xb6, 0x6d };
