#define antenna_1_width 16
#define antenna_1_height 16
static unsigned char antenna_1_bits[] = {
   0x00, 0x00, 0x00, 0x00, 0x00, 0x00, 0x00, 0x00, 0x00, 0x00, 0x00, 0x00,
   0x00, 0x00, 0x00, 0x00, 0x00, 0x00, 0x00, 0x00, 0x00, 0x00, 0x00, 0x00,
   0x06, 0x00, 0x06, 0x00, 0x06, 0x00, 0xb6, 0x6d };
