#define antenna_5_width 16
#define antenna_5_height 16
static unsigned char antenna_5_bits[] = {
   0x00, 0x60, 0x00, 0x60, 0x00, 0x60, 0x00, 0x6c, 0x00, 0x6c, 0x00, 0x6c,
   0x80, 0x6d, 0x80, 0x6d, 0x80, 0x6d, 0xb0, 0x6d, 0xb0, 0x6d, 0xb0, 0x6d,
   0xb6, 0x6d, 0xb6, 0x6d, 0xb6, 0x6d, 0xb6, 0x6d };
